<svg width="14" height="14" viewBox="0 0 14 14" fill="none" xmlns="http://www.w3.org/2000/svg">
<path fill-rule="evenodd" clip-rule="evenodd" d="M6.33325 1.66668C3.75592 1.66668 1.66659 3.75601 1.66659 6.33334C1.66659 8.91067 3.75592 11 6.33325 11C8.91058 11 10.9999 8.91067 10.9999 6.33334C10.9999 3.75601 8.91058 1.66668 6.33325 1.66668ZM0.333252 6.33334C0.333252 3.01963 3.01954 0.333344 6.33325 0.333344C9.64696 0.333344 12.3333 3.01963 12.3333 6.33334C12.3333 9.64705 9.64696 12.3333 6.33325 12.3333C3.01954 12.3333 0.333252 9.64705 0.333252 6.33334Z" fill="white"/>
<path fill-rule="evenodd" clip-rule="evenodd" d="M9.62851 9.62861C9.88886 9.36826 10.311 9.36826 10.5713 9.62861L13.4713 12.5286C13.7317 12.789 13.7317 13.2111 13.4713 13.4714C13.211 13.7318 12.7889 13.7318 12.5285 13.4714L9.62851 10.5714C9.36816 10.3111 9.36816 9.88896 9.62851 9.62861Z" fill="white"/>
</svg>
